<svg xmlns="http://www.w3.org/2000/svg" width="1200" height="520" viewBox="0 0 1200 520" role="img" aria-label="Architecture placeholder">
  <rect x="0" y="0" width="1200" height="520" rx="18" fill="#0b1220"/>
  <text x="48" y="70" font-family="system-ui, -apple-system, Segoe UI, Roboto, Ubuntu, Cantarell, Noto Sans, Helvetica, Arial" font-size="28" fill="#e5e7eb">
    Architecture (placeholder)
  </text>
  <text x="48" y="108" font-family="system-ui, -apple-system, Segoe UI, Roboto, Ubuntu, Cantarell, Noto Sans, Helvetica, Arial" font-size="16" fill="#94a3b8">
    Three prototypes + shared smoke test (replace with a real diagram).
  </text>

  <g font-family="ui-monospace, SFMono-Regular, Menlo, Monaco, Consolas, 'Liberation Mono', 'Courier New', monospace" font-size="16">
    <rect x="70" y="160" width="320" height="120" rx="14" fill="#0f172a" stroke="#334155"/>
    <text x="92" y="200" fill="#e5e7eb">Team1 Quantum</text>
    <text x="92" y="232" fill="#94a3b8">GPU-first + CPU fallback</text>

    <rect x="440" y="160" width="320" height="120" rx="14" fill="#0f172a" stroke="#334155"/>
    <text x="462" y="200" fill="#e5e7eb">Team2 Energy</text>
    <text x="462" y="232" fill="#94a3b8">Grid + thermo workload</text>

    <rect x="810" y="160" width="320" height="120" rx="14" fill="#0f172a" stroke="#334155"/>
    <text x="832" y="200" fill="#e5e7eb">Team3 Innovation</text>
    <text x="832" y="232" fill="#94a3b8">cuQuantum proof path</text>

    <rect x="270" y="350" width="660" height="110" rx="14" fill="#111827" stroke="#334155"/>
    <text x="292" y="392" fill="#e5e7eb">ecosystem_smoke.py</text>
    <text x="292" y="424" fill="#94a3b8">Imports all 3 in one env + writes ecosystem_results/latest.json</text>

    <path d="M390 220 L440 220" stroke="#60a5fa" stroke-width="3" />
    <path d="M760 220 L810 220" stroke="#60a5fa" stroke-width="3" />
    <path d="M230 280 L380 350" stroke="#60a5fa" stroke-width="3" />
    <path d="M600 280 L600 350" stroke="#60a5fa" stroke-width="3" />
    <path d="M970 280 L820 350" stroke="#60a5fa" stroke-width="3" />
  </g>
</svg>



